<svg width="123" height="68" viewBox="0 0 123 68" fill="none" xmlns="http://www.w3.org/2000/svg">
<path d="M2.52841 35V5.90909H14.0057C16.2121 5.90909 18.0919 6.33049 19.6449 7.1733C21.1979 8.00663 22.3816 9.16667 23.196 10.6534C24.0199 12.1307 24.4318 13.8352 24.4318 15.767C24.4318 17.6989 24.0152 19.4034 23.1818 20.8807C22.3485 22.358 21.1411 23.5085 19.5597 24.3324C17.9877 25.1562 16.0843 25.5682 13.8494 25.5682H6.53409V20.6392H12.8551C14.0388 20.6392 15.0142 20.4356 15.7812 20.0284C16.5578 19.6117 17.1354 19.0388 17.5142 18.3097C17.9025 17.571 18.0966 16.7235 18.0966 15.767C18.0966 14.8011 17.9025 13.9583 17.5142 13.2386C17.1354 12.5095 16.5578 11.946 15.7812 11.5483C15.0047 11.1411 14.0199 10.9375 12.8267 10.9375H8.67898V35H2.52841ZM37.9048 35.4261C35.6605 35.4261 33.7287 34.9716 32.1094 34.0625C30.4995 33.1439 29.259 31.8466 28.3878 30.1705C27.5166 28.4848 27.081 26.4915 27.081 24.1903C27.081 21.946 27.5166 19.9763 28.3878 18.2812C29.259 16.5862 30.4853 15.2652 32.0668 14.3182C33.6577 13.3712 35.5232 12.8977 37.6634 12.8977C39.1027 12.8977 40.4427 13.1297 41.6832 13.5938C42.9332 14.0483 44.0223 14.7348 44.9503 15.6534C45.8878 16.572 46.617 17.7273 47.1378 19.1193C47.6586 20.5019 47.919 22.1212 47.919 23.9773V25.6392H29.4957V21.8892H42.223C42.223 21.018 42.0336 20.2462 41.6548 19.5739C41.276 18.9015 40.7505 18.3759 40.0781 17.9972C39.4152 17.6089 38.6435 17.4148 37.7628 17.4148C36.8442 17.4148 36.0298 17.6278 35.3196 18.054C34.6188 18.4706 34.0696 19.0341 33.6719 19.7443C33.2741 20.4451 33.0705 21.2263 33.0611 22.0881V25.6534C33.0611 26.733 33.2599 27.6657 33.6577 28.4517C34.0649 29.2377 34.6378 29.8438 35.3764 30.2699C36.1151 30.696 36.991 30.9091 38.0043 30.9091C38.6766 30.9091 39.2921 30.8144 39.8509 30.625C40.4096 30.4356 40.8878 30.1515 41.2855 29.7727C41.6832 29.3939 41.9863 28.9299 42.1946 28.3807L47.7912 28.75C47.5071 30.0947 46.9247 31.2689 46.044 32.2727C45.1728 33.267 44.0459 34.0436 42.6634 34.6023C41.2902 35.1515 39.7041 35.4261 37.9048 35.4261ZM57.919 5.90909V35H51.8679V5.90909H57.919ZM62.7663 35V13.1818H68.8175V35H62.7663ZM65.8061 10.3693C64.9065 10.3693 64.1347 10.071 63.4908 9.47443C62.8563 8.86837 62.5391 8.14394 62.5391 7.30114C62.5391 6.4678 62.8563 5.75284 63.4908 5.15625C64.1347 4.55019 64.9065 4.24716 65.8061 4.24716C66.7057 4.24716 67.4728 4.55019 68.1072 5.15625C68.7512 5.75284 69.0732 6.4678 69.0732 7.30114C69.0732 8.14394 68.7512 8.86837 68.1072 9.47443C67.4728 10.071 66.7057 10.3693 65.8061 10.3693ZM91.8182 19.4034L86.2784 19.7443C86.1837 19.2708 85.9801 18.8447 85.6676 18.4659C85.3551 18.0777 84.9432 17.7699 84.4318 17.5426C83.9299 17.3059 83.3286 17.1875 82.6278 17.1875C81.6903 17.1875 80.8996 17.3864 80.2557 17.7841C79.6117 18.1723 79.2898 18.6932 79.2898 19.3466C79.2898 19.8674 79.4981 20.3078 79.9148 20.6676C80.3314 21.0275 81.0464 21.3163 82.0597 21.5341L86.0085 22.3295C88.1297 22.7652 89.7112 23.4659 90.7528 24.4318C91.7945 25.3977 92.3153 26.6667 92.3153 28.2386C92.3153 29.6686 91.8939 30.9233 91.0511 32.0028C90.2178 33.0824 89.072 33.9252 87.6136 34.5312C86.1648 35.1278 84.4934 35.4261 82.5994 35.4261C79.7112 35.4261 77.41 34.8248 75.696 33.6222C73.9915 32.41 72.9924 30.7623 72.6989 28.679L78.6506 28.3665C78.8305 29.2472 79.2661 29.9195 79.9574 30.3835C80.6487 30.8381 81.5341 31.0653 82.6136 31.0653C83.6742 31.0653 84.5265 30.8617 85.1705 30.4545C85.8239 30.0379 86.1553 29.5028 86.1648 28.8494C86.1553 28.3002 85.9233 27.8504 85.4688 27.5C85.0142 27.1402 84.3134 26.8655 83.3665 26.6761L79.5881 25.9233C77.4574 25.4972 75.8712 24.7585 74.8295 23.7074C73.7973 22.6562 73.2812 21.3163 73.2812 19.6875C73.2812 18.286 73.66 17.0786 74.4176 16.0653C75.1847 15.0521 76.2595 14.2708 77.642 13.7216C79.0341 13.1723 80.6629 12.8977 82.5284 12.8977C85.2841 12.8977 87.4527 13.4801 89.0341 14.6449C90.625 15.8097 91.553 17.3958 91.8182 19.4034Z" fill="black"/>
<path d="M63.0341 63H57.7614L65.7955 39.7273H72.1364L80.1591 63H74.8864L69.0568 45.0455H68.875L63.0341 63ZM62.7045 53.8523H75.1591V57.6932H62.7045V53.8523ZM87.8807 39.7273V63H82.9602V39.7273H87.8807ZM94.6676 63.2955C93.9176 63.2955 93.2737 63.0303 92.7358 62.5C92.2055 61.9621 91.9403 61.3182 91.9403 60.5682C91.9403 59.8258 92.2055 59.1894 92.7358 58.6591C93.2737 58.1288 93.9176 57.8636 94.6676 57.8636C95.3949 57.8636 96.0313 58.1288 96.5767 58.6591C97.1222 59.1894 97.3949 59.8258 97.3949 60.5682C97.3949 61.0682 97.2661 61.5265 97.0085 61.9432C96.7585 62.3523 96.429 62.6818 96.0199 62.9318C95.6108 63.1742 95.16 63.2955 94.6676 63.2955Z" fill="black"/>
</svg>
